<svg width="111" height="14" viewBox="0 0 111 14" fill="none" xmlns="http://www.w3.org/2000/svg">
<path d="M5.76758 13.318C5.31025 13.43 4.87625 13.486 4.46558 13.486C3.72825 13.486 3.08891 13.3133 2.54758 12.968C2.00625 12.632 1.59091 12.156 1.30158 11.54C1.01225 10.924 0.86758 10.2053 0.86758 9.384C0.86758 8.47867 1.04491 7.51267 1.39958 6.486L2.85558 7.06C2.54758 7.956 2.39358 8.74 2.39358 9.412C2.39358 10.1587 2.57091 10.7373 2.92558 11.148C3.28958 11.568 3.79825 11.778 4.45158 11.778C4.75025 11.778 5.06758 11.736 5.40358 11.652C6.10358 11.4747 6.59825 11.33 6.88758 11.218C7.18625 11.106 7.41025 10.924 7.55958 10.672C7.71825 10.42 7.78825 10.0467 7.76958 9.552L7.41958 0.521999L8.95958 0.438L9.30958 9.468C9.33758 10.28 9.21625 10.9333 8.94558 11.428C8.68425 11.932 8.29691 12.3193 7.78358 12.59C7.27958 12.87 6.60758 13.1127 5.76758 13.318ZM14.083 10C13.4297 10 12.9117 9.902 12.529 9.706C12.1557 9.51 11.8804 9.19267 11.703 8.754C11.5257 8.31533 11.4184 7.718 11.381 6.962L11.129 0.521999L12.669 0.438L12.921 6.962C12.9397 7.382 12.9724 7.68067 13.019 7.858C13.075 8.026 13.1777 8.138 13.327 8.194C13.4764 8.25 13.7284 8.278 14.083 8.278H14.223L14.321 9.146L14.223 10H14.083ZM21.7312 10C21.0405 10 20.4759 9.77133 20.0372 9.314C19.5985 9.77133 19.0199 10 18.3012 10C17.6385 10 17.0832 9.76667 16.6352 9.3C16.1965 9.76667 15.6132 10 14.8852 10H14.2272V8.278H14.8852C15.2959 8.278 15.5665 8.20333 15.6972 8.054C15.8372 7.90467 15.9072 7.69467 15.9072 7.424V5.688H17.3492V7.424V7.466C17.3492 7.718 17.4285 7.91867 17.5872 8.068C17.7459 8.208 17.9839 8.278 18.3012 8.278C18.6932 8.278 18.9592 8.208 19.0992 8.068C19.2485 7.91867 19.3279 7.72267 19.3372 7.48V7.424V5.688H20.7652V7.424V7.466C20.7652 8.00733 21.0872 8.278 21.7312 8.278C22.0579 8.278 22.3099 8.21733 22.4872 8.096C22.6739 7.96533 22.7672 7.746 22.7672 7.438C22.7672 7.31667 22.7345 7.116 22.6692 6.836L22.1092 4.75L23.5792 4.316L24.1392 6.402C24.2419 6.794 24.2932 7.144 24.2932 7.452C24.2932 7.96533 24.1812 8.41333 23.9572 8.796C23.7332 9.17867 23.4252 9.47733 23.0332 9.692C22.6505 9.89733 22.2165 10 21.7312 10ZM23.9665 11.918L24.7365 11.708C25.2125 11.5773 25.5858 11.4513 25.8565 11.33C26.1272 11.218 26.3372 11.064 26.4865 10.868C26.6358 10.6813 26.7105 10.434 26.7105 10.126C26.7105 10.0607 26.7012 9.95333 26.6825 9.804L26.1225 5.786L27.6345 5.548L28.0405 8.502L28.1945 9.608C28.2225 9.84133 28.2365 10.0607 28.2365 10.266C28.2365 11.1153 27.9798 11.7733 27.4665 12.24C26.9532 12.7067 26.1785 13.0847 25.1425 13.374L24.3725 13.584L23.9665 11.918ZM29.8876 0.521999L31.4136 0.438L31.7776 9.986L30.2516 10.056L29.8876 0.521999ZM49.986 10C49.2954 10 48.7307 9.77133 48.292 9.314C47.8534 9.77133 47.2747 10 46.556 10C46.164 10 45.8094 9.92067 45.492 9.762C45.5014 9.83667 45.506 9.944 45.506 10.084C45.506 10.7187 45.3614 11.2413 45.072 11.652C44.792 12.072 44.3954 12.4033 43.882 12.646C43.3687 12.898 42.72 13.1173 41.936 13.304C41.4694 13.4067 41.0447 13.458 40.662 13.458C39.9154 13.458 39.2667 13.29 38.716 12.954C38.1747 12.618 37.7547 12.142 37.456 11.526C37.1667 10.91 37.022 10.1913 37.022 9.37C37.022 8.474 37.204 7.50333 37.568 6.458L39.024 7.046C38.716 7.914 38.562 8.70267 38.562 9.412C38.562 10.1587 38.7394 10.7327 39.094 11.134C39.458 11.5353 39.976 11.736 40.648 11.736C40.9747 11.736 41.2874 11.6987 41.586 11.624C42.23 11.4747 42.7014 11.3487 43 11.246C43.308 11.1433 43.546 10.9987 43.714 10.812C43.882 10.6253 43.966 10.364 43.966 10.028C43.966 9.95333 43.9567 9.82267 43.938 9.636L43.378 5.8L44.89 5.548L45.128 7.158C45.24 7.578 45.3987 7.872 45.604 8.04C45.8187 8.19867 46.136 8.278 46.556 8.278C46.9667 8.278 47.242 8.20333 47.382 8.054C47.522 7.89533 47.592 7.68533 47.592 7.424V5.688H49.02V7.424C49.02 7.72267 49.0947 7.942 49.244 8.082C49.4027 8.21267 49.65 8.278 49.986 8.278C50.3127 8.278 50.5647 8.21733 50.742 8.096C50.9287 7.96533 51.022 7.746 51.022 7.438C51.022 7.326 50.9894 7.13 50.924 6.85L50.364 4.764L51.834 4.316L52.394 6.402C52.4967 6.794 52.548 7.144 52.548 7.452C52.548 7.96533 52.436 8.41333 52.212 8.796C51.988 9.17867 51.68 9.47733 51.288 9.692C50.9054 9.89733 50.4714 10 49.986 10ZM46.01 2.356H47.62L47.634 3.966H46.01V2.356ZM47.48 0.354H48.936V1.712H47.48V0.354ZM48.768 2.356H50.378V3.966H48.754L48.768 2.356ZM54.8298 11.918C55.9872 11.6847 56.7945 11.498 57.2518 11.358C57.7185 11.218 58.0358 11.0407 58.2038 10.826C58.3718 10.6113 58.4372 10.294 58.3998 9.874C57.8772 9.958 57.3405 10 56.7898 10C56.2952 10 55.8518 9.88333 55.4598 9.65C55.0678 9.41667 54.7598 9.09467 54.5358 8.684C54.3118 8.264 54.1998 7.79267 54.1998 7.27C54.1998 6.74733 54.3118 6.25733 54.5358 5.8C54.7692 5.33333 55.0865 4.96 55.4878 4.68C55.8985 4.4 56.3605 4.26 56.8738 4.26C57.6298 4.26 58.2598 4.54933 58.7638 5.128C59.2772 5.69733 59.5852 6.444 59.6878 7.368L59.9258 9.636C59.9445 9.776 59.9538 9.97667 59.9538 10.238C59.9538 10.9287 59.7905 11.4747 59.4638 11.876C59.1372 12.2773 58.6425 12.5993 57.9798 12.842C57.3172 13.0847 56.3698 13.3367 55.1378 13.598L54.8298 11.918ZM55.7538 7.284C55.7538 7.592 55.8425 7.83467 56.0198 8.012C56.1972 8.18933 56.4538 8.278 56.7898 8.278C57.2658 8.278 57.7465 8.24067 58.2318 8.166L58.1758 7.578C58.1198 7.074 57.9752 6.682 57.7418 6.402C57.5178 6.122 57.2285 5.982 56.8738 5.982C56.5285 5.982 56.2532 6.108 56.0478 6.36C55.8518 6.612 55.7538 6.92 55.7538 7.284ZM60.5278 11.918L61.2978 11.708C61.7738 11.5773 62.1472 11.4513 62.4178 11.33C62.6885 11.218 62.8985 11.064 63.0478 10.868C63.1972 10.6813 63.2718 10.434 63.2718 10.126C63.2718 10.0607 63.2625 9.95333 63.2438 9.804L62.6838 5.786L64.1958 5.548L64.6018 8.502L64.7558 9.608C64.7838 9.84133 64.7978 10.0607 64.7978 10.266C64.7978 11.1153 64.5412 11.7733 64.0278 12.24C63.5145 12.7067 62.7398 13.0847 61.7038 13.374L60.9338 13.584L60.5278 11.918ZM75.5896 10C74.563 10 73.7836 9.99067 73.2516 9.972C72.729 9.95333 72.323 9.916 72.0336 9.86C71.7443 9.804 71.469 9.72 71.2076 9.608C70.741 9.40267 70.3816 9.104 70.1296 8.712C69.887 8.31067 69.7656 7.84867 69.7656 7.326C69.7656 7.05533 69.8123 6.73333 69.9056 6.36L70.4236 4.344L71.9076 4.778L71.3616 6.864C71.315 7.06933 71.2916 7.22333 71.2916 7.326C71.2916 7.494 71.3336 7.634 71.4176 7.746C71.5016 7.858 71.637 7.956 71.8236 8.04C72.029 8.13333 72.365 8.19867 72.8316 8.236C73.2983 8.264 74.2643 8.278 75.7296 8.278H75.7436C77.1623 8.278 78.1003 8.25933 78.5576 8.222C79.0243 8.18467 79.3743 8.11933 79.6076 8.026C79.785 7.95133 79.9203 7.858 80.0136 7.746C80.107 7.62467 80.1536 7.466 80.1536 7.27C80.1536 7.14867 80.121 6.95733 80.0556 6.696L79.5236 4.75L81.0076 4.316L81.5396 6.262C81.633 6.60733 81.6796 6.95267 81.6796 7.298C81.6796 7.83 81.5536 8.29667 81.3016 8.698C81.059 9.09933 80.7043 9.40267 80.2376 9.608C79.9763 9.72 79.6963 9.804 79.3976 9.86C79.099 9.916 78.679 9.95333 78.1376 9.972C77.5963 9.99067 76.7983 10 75.7436 10H75.7296H75.5896ZM74.8756 11.176H76.5696V12.87H74.8756V11.176ZM86.358 10C85.7047 10 85.1867 9.902 84.804 9.706C84.4307 9.51 84.1554 9.19267 83.978 8.754C83.8007 8.31533 83.6934 7.718 83.656 6.962L83.404 0.521999L84.944 0.438L85.196 6.962C85.2147 7.382 85.2474 7.68067 85.294 7.858C85.35 8.026 85.4527 8.138 85.602 8.194C85.7514 8.25 86.0034 8.278 86.358 8.278H86.498L86.596 9.146L86.498 10H86.358ZM86.5022 8.278H86.7542C87.9302 8.278 89.1995 8.09133 90.5622 7.718L93.4742 6.92L90.9542 5.716C90.7209 5.59467 90.4782 5.534 90.2262 5.534C89.9742 5.534 89.7362 5.59933 89.5122 5.73C89.2975 5.86067 89.1202 6.04733 88.9802 6.29L88.7282 6.738L87.3982 5.912L87.6642 5.422C87.9629 4.89 88.3315 4.48867 88.7702 4.218C89.2089 3.94733 89.6849 3.812 90.1982 3.812C90.6929 3.812 91.1969 3.94733 91.7102 4.218L95.2942 6.15L95.0562 8.096L94.9162 8.138C95.0749 8.23133 95.2475 8.278 95.4342 8.278H96.3302L96.4282 9.146L96.3302 10H95.4342C94.9769 10 94.5522 9.87867 94.1602 9.636C93.7775 9.39333 93.4789 9.06667 93.2642 8.656L90.9962 9.356C89.6429 9.78533 88.2289 10 86.7542 10H86.5022V8.278ZM89.2882 0.998H90.9822V2.692H89.2882V0.998ZM96.3355 8.278H98.6875C99.0889 8.278 99.3642 8.21733 99.5135 8.096C99.6722 7.96533 99.7422 7.76467 99.7235 7.494L99.5695 5.772L101.096 5.618L101.25 7.34V7.438C101.287 7.76467 101.376 7.98867 101.516 8.11C101.656 8.222 101.908 8.278 102.272 8.278L102.37 9.146L102.272 10C101.525 10 100.937 9.79933 100.508 9.398C100.032 9.79933 99.4249 10 98.6875 10H96.3355V8.278ZM96.4895 2.636H98.0015V4.148H96.4895V2.636ZM99.2335 2.636H100.732V4.148H99.2335V2.636ZM102.272 8.278H103.378C103.798 8.278 104.116 8.21267 104.33 8.082C104.554 7.95133 104.666 7.72267 104.666 7.396C104.666 7.24667 104.638 7.06 104.582 6.836L104.022 4.75L105.506 4.316L106.066 6.402C106.16 6.74733 106.206 7.088 106.206 7.424C106.206 8.21733 105.94 8.84733 105.408 9.314C104.886 9.77133 104.209 10 103.378 10H102.272V8.278ZM103.308 1.446H105.002V3.14H103.308V1.446ZM108.127 0.521999L109.653 0.438L110.017 9.986L108.491 10.056L108.127 0.521999Z" fill="#424242"/>
</svg>
